<svg xmlns="http://www.w3.org/2000/svg" width="35.998" height="29.268" viewBox="0 0 35.998 29.268" fill="none">
  <path d="M 31.234 1.699 C 28.324 2.338 22.899 4.851 19.184 10.241 C 20.176 11.853 21.023 13.682 21.646 15.745 C 22.396 14.952 23.205 14.255 24.052 13.646 C 28.044 10.775 32.809 9.909 35.998 9.984 L 35.957 11.724 C 33.056 11.655 28.686 12.455 25.067 15.058 C 22.172 17.139 19.709 20.406 18.879 25.437 C 19.06 26.628 19.159 27.904 19.159 29.268 L 16.839 29.268 C 16.839 27.904 16.938 26.628 17.119 25.437 C 16.289 20.406 13.826 17.139 10.931 15.058 C 7.312 12.455 2.942 11.655 0.041 11.724 L 0 9.984 C 3.189 9.908 7.954 10.775 11.946 13.646 C 12.877 14.314 13.76 15.09 14.57 15.982 C 15.2 13.822 16.073 11.915 17.104 10.241 C 13.388 4.851 7.964 2.338 5.054 1.699 L 5.427 0 C 8.551 0.686 14.149 3.257 18.144 8.696 C 22.138 3.257 27.737 0.686 30.861 0 L 31.234 1.699 Z M 18.145 11.911 C 17.218 13.565 16.455 15.447 15.945 17.58 L 15.825 17.551 C 16.697 18.789 17.439 20.207 17.999 21.826 C 18.585 20.133 19.367 18.657 20.292 17.379 C 19.783 15.329 19.041 13.513 18.145 11.911 Z" fill="currentColor" fill-rule="nonzero"/>
</svg>
